<?xml version="1.0" encoding="UTF-8" standalone="no"?>
<!DOCTYPE svg PUBLIC "-//W3C//DTD SVG 1.1//EN" "http://www.w3.org/Graphics/SVG/1.1/DTD/svg11.dtd">
<svg version="1.1" xmlns="http://www.w3.org/2000/svg" xmlns:xlink="http://www.w3.org/1999/xlink" preserveAspectRatio="xMidYMid meet" viewBox="0 0 640 640" width="640" height="640"><defs><path d="M583.17 300.33C583.17 337.51 552.85 367.66 515.55 367.66C478.33 367.66 448.01 337.51 448.01 300.33C448.01 263.15 478.33 232.93 515.55 232.93C552.85 232.93 583.17 263.15 583.17 300.33Z" id="j87qicM8x"></path><path d="M448.01 300.33C448.01 337.51 417.69 367.66 380.46 367.66C343.17 367.66 312.85 337.51 312.85 300.33C312.85 263.15 343.17 232.93 380.46 232.93C417.69 232.93 448.01 263.15 448.01 300.33Z" id="gBOdiFf2d"></path><path d="M582.48 406.97C582.48 480.95 522.23 541.01 448.01 541.01C373.79 541.01 313.54 480.95 313.54 406.97C313.54 332.98 373.79 272.93 448.01 272.93C522.23 272.93 582.48 332.98 582.48 406.97Z" id="b3RWImoqx6"></path><path d="M493.22 457.07C491.79 458.51 489.53 458.51 488.09 457.07C478.32 447.3 451.59 420.57 441.82 410.8C440.38 409.36 440.38 407.1 441.81 405.66C443.35 404.13 445.4 402.08 446.94 400.54C448.37 399.1 450.63 399.11 452.07 400.55C461.84 410.32 488.57 437.05 498.34 446.82C499.78 448.26 499.78 450.51 498.34 451.95C496.81 453.49 494.76 455.54 493.22 457.07Z" id="b1LgsDo0VZ"></path><path d="M456.44 426.73C476.35 446.58 532.14 502.18 552.05 522.02C554.23 524.19 554.23 527.71 552.05 529.89C550.18 531.75 548.51 533.42 546.64 535.28C544.46 537.45 540.93 537.45 538.75 535.28C518.83 515.44 463.04 459.84 443.13 439.99C440.95 437.82 440.95 434.3 443.13 432.13C445 430.26 446.67 428.6 448.55 426.73C450.73 424.56 454.26 424.56 456.44 426.73Z" id="k1kqurNVtu"></path><path d="M453.64 439.99C433.73 459.84 377.94 515.44 358.03 535.28C355.85 537.45 352.32 537.45 350.14 535.28C348.26 533.42 346.59 531.75 344.72 529.89C342.54 527.71 342.54 524.19 344.72 522.02C364.63 502.18 420.42 446.58 440.34 426.73C442.51 424.56 446.05 424.56 448.23 426.73C450.1 428.6 451.77 430.26 453.64 432.13C455.82 434.3 455.82 437.82 453.64 439.99Z" id="a1BrLeSgoD"></path><path d="M261.21 390.33C261.21 418.39 238.33 441.15 210.18 441.15C182.09 441.15 159.21 418.39 159.21 390.33C159.21 362.27 182.09 339.47 210.18 339.47C238.33 339.47 261.21 362.27 261.21 390.33Z" id="d4TkEYv0Ia"></path><path d="M159.21 390.33C159.21 418.39 136.33 441.15 108.23 441.15C80.08 441.15 57.2 418.39 57.2 390.33C57.2 362.27 80.08 339.47 108.23 339.47C136.33 339.47 159.21 362.27 159.21 390.33Z" id="jhUTvsWIO"></path><path d="M260.69 470.82C260.69 526.65 215.22 571.97 159.21 571.97C103.19 571.97 57.72 526.65 57.72 470.82C57.72 414.98 103.19 369.66 159.21 369.66C215.22 369.66 260.69 414.98 260.69 470.82Z" id="i3Y3uu9UHB"></path><path d="M164.69 471.53C164.69 474.15 162.55 476.28 159.92 476.28C158.66 476.28 159.76 476.28 158.49 476.28C155.86 476.28 153.72 474.15 153.72 471.53C153.72 456.05 153.72 414.42 153.72 399C153.72 396.37 155.86 394.24 158.49 394.24C159.76 394.24 158.66 394.24 159.92 394.24C162.55 394.24 164.69 396.37 164.69 399C164.69 414.42 164.69 456.05 164.69 471.53Z" id="d170wJ9TTE"></path><path d="M165.57 485.73C180.6 500.71 222.7 542.67 237.73 557.65C239.38 559.28 239.38 561.94 237.73 563.58C236.32 564.99 235.06 566.24 233.64 567.65C232 569.29 229.33 569.29 227.69 567.65C212.66 552.68 170.56 510.72 155.53 495.74C153.88 494.1 153.88 491.44 155.53 489.8C156.94 488.39 158.2 487.14 159.61 485.73C161.26 484.09 163.93 484.09 165.57 485.73Z" id="c3Q4QLTppb"></path><path d="M163.46 495.74C148.43 510.72 106.33 552.68 91.3 567.65C89.66 569.29 86.99 569.29 85.34 567.65C83.93 566.24 82.67 564.99 81.26 563.58C79.61 561.94 79.61 559.28 81.26 557.65C96.29 542.67 138.39 500.71 153.42 485.73C155.06 484.09 157.73 484.09 159.37 485.73C160.79 487.14 162.05 488.39 163.46 489.8C165.11 491.44 165.11 494.1 163.46 495.74Z" id="b872NB4pr"></path><path d="M133.96 518.79C132.58 518.14 131.99 516.54 132.64 515.14C137.05 505.7 149.11 479.84 153.51 470.39C154.16 469 155.76 468.41 157.15 469.06C158.64 469.75 160.62 470.68 162.11 471.37C163.5 472.02 164.08 473.62 163.43 475.01C159.02 484.46 146.97 510.32 142.56 519.77C141.91 521.16 140.31 521.75 138.92 521.1C137.43 520.4 135.45 519.48 133.96 518.79Z" id="cpyIKyMG"></path><path d="M285.94 130.87C285.94 150.09 270.19 165.68 250.82 165.68C231.48 165.68 215.72 150.09 215.72 130.87C215.72 111.64 231.48 96.02 250.82 96.02C270.19 96.02 285.94 111.64 285.94 130.87Z" id="o3H4BU5UyQ"></path><path d="M215.72 130.87C215.72 150.09 199.97 165.68 180.63 165.68C161.26 165.68 145.51 150.09 145.51 130.87C145.51 111.64 161.26 96.02 180.63 96.02C199.97 96.02 215.72 111.64 215.72 130.87Z" id="h361iEMfCZ"></path><path d="M285.59 186.01C285.59 224.27 254.28 255.32 215.72 255.32C177.17 255.32 145.86 224.27 145.86 186.01C145.86 147.75 177.17 116.7 215.72 116.7C254.28 116.7 285.59 147.75 285.59 186.01Z" id="e4DH7bRDF"></path><path d="M219.5 186.5C219.5 188.3 218.03 189.76 216.22 189.76C215.35 189.76 216.1 189.76 215.23 189.76C213.42 189.76 211.95 188.3 211.95 186.5C211.95 175.89 211.95 147.37 211.95 136.81C211.95 135.01 213.42 133.55 215.23 133.55C216.1 133.55 215.35 133.55 216.22 133.55C218.03 133.55 219.5 135.01 219.5 136.81C219.5 147.37 219.5 175.89 219.5 186.5Z" id="b1zWPewzWu"></path><path d="M246.79 169.93C247.31 170.84 247.01 171.97 246.09 172.5C239.87 176.09 222.87 185.91 216.65 189.5C215.73 190.03 214.6 189.73 214.08 188.82C213.52 187.85 212.77 186.55 212.2 185.58C211.68 184.67 211.99 183.54 212.9 183.01C219.12 179.42 236.13 169.6 242.34 166.01C243.26 165.48 244.39 165.78 244.92 166.69C245.48 167.66 246.23 168.96 246.79 169.93Z" id="d13Y5gLzRs"></path><path d="M220.1 196.23C230.45 206.49 259.43 235.24 269.78 245.51C270.91 246.63 270.91 248.45 269.78 249.57C268.81 250.54 267.94 251.4 266.97 252.36C265.83 253.49 264 253.49 262.87 252.36C252.52 242.1 223.54 213.35 213.19 203.09C212.06 201.97 212.06 200.15 213.19 199.02C214.17 198.06 215.03 197.2 216 196.23C217.14 195.11 218.97 195.11 220.1 196.23Z" id="c5oBCkRXN"></path><path d="M218.65 203.09C208.31 213.35 179.32 242.1 168.98 252.36C167.85 253.49 166.01 253.49 164.88 252.36C163.91 251.4 163.04 250.54 162.07 249.57C160.93 248.45 160.93 246.63 162.07 245.51C172.41 235.24 201.4 206.49 211.74 196.23C212.87 195.11 214.71 195.11 215.84 196.23C216.81 197.2 217.68 198.06 218.65 199.02C219.79 200.15 219.79 201.97 218.65 203.09Z" id="bU9tgBTuh"></path><path d="M519.48 67.15C519.48 79.54 509.37 89.58 496.95 89.58C484.55 89.58 474.44 79.54 474.44 67.15C474.44 54.76 484.55 44.7 496.95 44.7C509.37 44.7 519.48 54.76 519.48 67.15Z" id="a3LgpyMMK"></path><path d="M474.44 67.15C474.44 79.54 464.34 89.58 451.94 89.58C439.52 89.58 429.41 79.54 429.41 67.15C429.41 54.76 439.52 44.7 451.94 44.7C464.34 44.7 474.44 54.76 474.44 67.15Z" id="c2DvgfRJfk"></path><path d="M519.25 102.68C519.25 127.33 499.17 147.34 474.44 147.34C449.72 147.34 429.64 127.33 429.64 102.68C429.64 78.03 449.72 58.02 474.44 58.02C499.17 58.02 519.25 78.03 519.25 102.68Z" id="a6f3CYFveh"></path><path d="M476.87 102.99C476.87 104.15 475.92 105.09 474.76 105.09C474.2 105.09 474.69 105.09 474.13 105.09C472.97 105.09 472.02 104.15 472.02 102.99C472.02 96.16 472.02 77.79 472.02 70.98C472.02 69.82 472.97 68.88 474.13 68.88C474.69 68.88 474.2 68.88 474.76 68.88C475.92 68.88 476.87 69.82 476.87 70.98C476.87 77.79 476.87 96.16 476.87 102.99Z" id="eOYz5Gaz2"></path><path d="M497.25 103.89C497.25 104.56 496.71 105.09 496.03 105.09C491.43 105.09 478.84 105.09 474.23 105.09C473.56 105.09 473.02 104.56 473.02 103.89C473.02 103.16 473.02 102.2 473.02 101.47C473.02 100.8 473.56 100.26 474.23 100.26C478.84 100.26 491.43 100.26 496.03 100.26C496.71 100.26 497.25 100.8 497.25 101.47C497.25 102.2 497.25 103.16 497.25 103.89Z" id="apOskGjW8"></path><path d="M477.25 109.26C483.89 115.87 502.47 134.4 509.11 141.01C509.83 141.73 509.83 142.91 509.11 143.63C508.48 144.25 507.93 144.81 507.3 145.43C506.58 146.15 505.4 146.15 504.68 145.43C498.04 138.82 479.45 120.29 472.82 113.68C472.09 112.96 472.09 111.78 472.82 111.06C473.44 110.44 474 109.89 474.62 109.26C475.35 108.54 476.53 108.54 477.25 109.26Z" id="b19NIDsPDP"></path><path d="M476.32 113.68C469.69 120.29 451.1 138.82 444.47 145.43C443.74 146.15 442.56 146.15 441.84 145.43C441.21 144.81 440.66 144.25 440.03 143.63C439.31 142.91 439.31 141.73 440.03 141.01C446.67 134.4 465.26 115.87 471.89 109.26C472.61 108.54 473.79 108.54 474.52 109.26C475.14 109.89 475.7 110.44 476.32 111.06C477.05 111.78 477.05 112.96 476.32 113.68Z" id="d1lx8MTSw3"></path><path d="M454.72 404.99C454.72 408.44 451.91 411.24 448.45 411.24C446.79 411.24 448.23 411.24 446.58 411.24C443.12 411.24 440.31 408.44 440.31 404.99C440.31 384.65 440.31 329.95 440.31 309.69C440.31 306.24 443.12 303.43 446.58 303.43C448.23 303.43 446.79 303.43 448.45 303.43C451.91 303.43 454.72 306.24 454.72 309.69C454.72 329.95 454.72 384.65 454.72 404.99Z" id="a16MOVwf68"></path></defs><g><g><g><use xlink:href="#j87qicM8x" opacity="1" fill="#000000" fill-opacity="1"></use><g><use xlink:href="#j87qicM8x" opacity="1" fill-opacity="0" stroke="#000000" stroke-width="1" stroke-opacity="0"></use></g></g><g><use xlink:href="#gBOdiFf2d" opacity="1" fill="#000000" fill-opacity="1"></use><g><use xlink:href="#gBOdiFf2d" opacity="1" fill-opacity="0" stroke="#000000" stroke-width="1" stroke-opacity="0"></use></g></g><g><use xlink:href="#b3RWImoqx6" opacity="1" fill="#000000" fill-opacity="1"></use><g><use xlink:href="#b3RWImoqx6" opacity="1" fill-opacity="0" stroke="#ffffff" stroke-width="30" stroke-opacity="1"></use></g></g><g><use xlink:href="#b1LgsDo0VZ" opacity="1" fill="#ffffff" fill-opacity="1"></use><g><use xlink:href="#b1LgsDo0VZ" opacity="1" fill-opacity="0" stroke="#000000" stroke-width="1" stroke-opacity="0"></use></g></g><g><use xlink:href="#k1kqurNVtu" opacity="1" fill="#000000" fill-opacity="1"></use><g><use xlink:href="#k1kqurNVtu" opacity="1" fill-opacity="0" stroke="#000000" stroke-width="1" stroke-opacity="0"></use></g></g><g><use xlink:href="#a1BrLeSgoD" opacity="1" fill="#000000" fill-opacity="1"></use><g><use xlink:href="#a1BrLeSgoD" opacity="1" fill-opacity="0" stroke="#000000" stroke-width="1" stroke-opacity="0"></use></g></g><g><use xlink:href="#d4TkEYv0Ia" opacity="1" fill="#000000" fill-opacity="1"></use><g><use xlink:href="#d4TkEYv0Ia" opacity="1" fill-opacity="0" stroke="#000000" stroke-width="1" stroke-opacity="0"></use></g></g><g><use xlink:href="#jhUTvsWIO" opacity="1" fill="#000000" fill-opacity="1"></use><g><use xlink:href="#jhUTvsWIO" opacity="1" fill-opacity="0" stroke="#000000" stroke-width="1" stroke-opacity="0"></use></g></g><g><use xlink:href="#i3Y3uu9UHB" opacity="1" fill="#000000" fill-opacity="1"></use><g><use xlink:href="#i3Y3uu9UHB" opacity="1" fill-opacity="0" stroke="#ffffff" stroke-width="22" stroke-opacity="1"></use></g></g><g><use xlink:href="#d170wJ9TTE" opacity="1" fill="#ffffff" fill-opacity="1"></use><g><use xlink:href="#d170wJ9TTE" opacity="1" fill-opacity="0" stroke="#000000" stroke-width="1" stroke-opacity="0"></use></g></g><g><use xlink:href="#c3Q4QLTppb" opacity="1" fill="#000000" fill-opacity="1"></use><g><use xlink:href="#c3Q4QLTppb" opacity="1" fill-opacity="0" stroke="#000000" stroke-width="1" stroke-opacity="0"></use></g></g><g><use xlink:href="#b872NB4pr" opacity="1" fill="#000000" fill-opacity="1"></use><g><use xlink:href="#b872NB4pr" opacity="1" fill-opacity="0" stroke="#000000" stroke-width="1" stroke-opacity="0"></use></g></g><g><use xlink:href="#cpyIKyMG" opacity="1" fill="#ffffff" fill-opacity="1"></use><g><use xlink:href="#cpyIKyMG" opacity="1" fill-opacity="0" stroke="#000000" stroke-width="1" stroke-opacity="0"></use></g></g><g><use xlink:href="#o3H4BU5UyQ" opacity="1" fill="#000000" fill-opacity="1"></use><g><use xlink:href="#o3H4BU5UyQ" opacity="1" fill-opacity="0" stroke="#000000" stroke-width="1" stroke-opacity="0"></use></g></g><g><use xlink:href="#h361iEMfCZ" opacity="1" fill="#000000" fill-opacity="1.00"></use><g><use xlink:href="#h361iEMfCZ" opacity="1" fill-opacity="0" stroke="#000000" stroke-width="1" stroke-opacity="0"></use></g></g><g><use xlink:href="#e4DH7bRDF" opacity="1" fill="#000000" fill-opacity="1"></use><g><use xlink:href="#e4DH7bRDF" opacity="1" fill-opacity="0" stroke="#ffffff" stroke-width="14" stroke-opacity="1"></use></g></g><g><use xlink:href="#b1zWPewzWu" opacity="1" fill="#ffffff" fill-opacity="1"></use><g><use xlink:href="#b1zWPewzWu" opacity="1" fill-opacity="0" stroke="#000000" stroke-width="1" stroke-opacity="0"></use></g></g><g><use xlink:href="#d13Y5gLzRs" opacity="1" fill="#ffffff" fill-opacity="1"></use><g><use xlink:href="#d13Y5gLzRs" opacity="1" fill-opacity="0" stroke="#000000" stroke-width="1" stroke-opacity="0"></use></g></g><g><use xlink:href="#c5oBCkRXN" opacity="1" fill="#000000" fill-opacity="1"></use><g><use xlink:href="#c5oBCkRXN" opacity="1" fill-opacity="0" stroke="#000000" stroke-width="1" stroke-opacity="0"></use></g></g><g><use xlink:href="#bU9tgBTuh" opacity="1" fill="#000000" fill-opacity="1"></use><g><use xlink:href="#bU9tgBTuh" opacity="1" fill-opacity="0" stroke="#000000" stroke-width="1" stroke-opacity="0"></use></g></g><g><use xlink:href="#a3LgpyMMK" opacity="1" fill="#000000" fill-opacity="1"></use><g><use xlink:href="#a3LgpyMMK" opacity="1" fill-opacity="0" stroke="#000000" stroke-width="1" stroke-opacity="0"></use></g></g><g><use xlink:href="#c2DvgfRJfk" opacity="1" fill="#000000" fill-opacity="1"></use><g><use xlink:href="#c2DvgfRJfk" opacity="1" fill-opacity="0" stroke="#000000" stroke-width="1" stroke-opacity="0"></use></g></g><g><use xlink:href="#a6f3CYFveh" opacity="1" fill="#000000" fill-opacity="1"></use><g><use xlink:href="#a6f3CYFveh" opacity="1" fill-opacity="0" stroke="#ffffff" stroke-width="10" stroke-opacity="1"></use></g></g><g><use xlink:href="#eOYz5Gaz2" opacity="1" fill="#ffffff" fill-opacity="1"></use><g><use xlink:href="#eOYz5Gaz2" opacity="1" fill-opacity="0" stroke="#000000" stroke-width="0" stroke-opacity="0"></use></g></g><g><use xlink:href="#apOskGjW8" opacity="1" fill="#ffffff" fill-opacity="1"></use><g><use xlink:href="#apOskGjW8" opacity="1" fill-opacity="0" stroke="#000000" stroke-width="0" stroke-opacity="0"></use></g></g><g><use xlink:href="#b19NIDsPDP" opacity="1" fill="#000000" fill-opacity="1"></use><g><use xlink:href="#b19NIDsPDP" opacity="1" fill-opacity="0" stroke="#000000" stroke-width="1" stroke-opacity="0"></use></g></g><g><use xlink:href="#d1lx8MTSw3" opacity="1" fill="#000000" fill-opacity="1"></use><g><use xlink:href="#d1lx8MTSw3" opacity="1" fill-opacity="0" stroke="#000000" stroke-width="1" stroke-opacity="0"></use></g></g><g><use xlink:href="#a16MOVwf68" opacity="1" fill="#ffffff" fill-opacity="1"></use><g><use xlink:href="#a16MOVwf68" opacity="1" fill-opacity="0" stroke="#000000" stroke-width="1" stroke-opacity="0"></use></g></g></g></g></svg>