<?xml version="1.0" encoding="UTF-8" standalone="no"?>
<!DOCTYPE svg PUBLIC "-//W3C//DTD SVG 1.1//EN" "http://www.w3.org/Graphics/SVG/1.1/DTD/svg11.dtd">
<svg version="1.1" xmlns="http://www.w3.org/2000/svg" xmlns:xlink="http://www.w3.org/1999/xlink" preserveAspectRatio="xMidYMid meet" viewBox="-10.263324561404751 -8.5089385964922 1414.5263157894742 1425.0526315789493" width="1365.33" height="1365.33"><defs><path d="M-9.26 -7.51L1401.26 -7.51L1401.26 1413.54L-9.26 1413.54L-9.26 -7.51Z" id="d1wttXrHvn"></path><path d="M918.76 193.75C1037.66 193.75 1134.32 290.42 1134.32 409.35C1134.32 528.29 1037.66 624.73 918.76 624.73C800.08 624.73 703.42 528.29 703.42 409.35C703.42 290.42 800.08 193.75 918.76 193.75Z" id="i1APJ4G2B0"></path><path d="M488.09 193.75C606.77 193.75 703.42 290.42 703.42 409.35C703.42 528.29 606.77 624.73 488.09 624.73C369.19 624.73 272.53 528.29 272.53 409.35C272.53 290.42 369.19 193.75 488.09 193.75Z" id="cpAvTvCJO"></path><path d="M703.42 321.71C940.04 321.71 1132.12 513.82 1132.12 750.49C1132.12 987.15 940.04 1179.26 703.42 1179.26C466.81 1179.26 274.73 987.15 274.73 750.49C274.73 513.82 466.81 321.71 703.42 321.71Z" id="c22Bszu2mi"></path><path d="M726.6 446.09C726.6 511.47 726.6 687.89 726.6 753.5C726.6 764.63 717.56 773.67 706.44 773.67C701.11 773.67 705.74 773.67 700.41 773.67C689.29 773.67 680.25 764.63 680.25 753.5C680.25 687.89 680.25 511.47 680.25 446.09C680.25 434.96 689.29 425.92 700.41 425.92C705.74 425.92 701.11 425.92 706.44 425.92C717.56 425.92 726.6 434.96 726.6 446.09Z" id="d3JUegODW6"></path><path d="M912.03 738.9C912.03 745.85 912.03 755.12 912.03 762.08C912.03 768.57 906.93 773.67 900.44 773.67C856.4 773.67 735.88 773.67 691.84 773.67C685.35 773.67 680.25 768.57 680.25 762.08C680.25 755.12 680.25 745.85 680.25 738.9C680.25 732.4 685.35 727.3 691.84 727.3C735.88 727.3 856.4 727.3 900.44 727.3C906.93 727.3 912.03 732.4 912.03 738.9Z" id="cbqB9o6Aa6"></path><path d="M705.14 813.71C712.09 806.76 723.36 806.76 730.3 813.71C793.79 877.19 971.64 1055.05 1035.12 1118.53C1042.07 1125.48 1042.07 1136.74 1035.12 1143.69C1029.15 1149.66 1023.83 1154.98 1017.86 1160.95C1010.91 1167.9 999.65 1167.9 992.7 1160.95C929.22 1097.47 751.36 919.61 687.88 856.13C680.93 849.19 680.93 837.92 687.88 830.97C693.85 825 699.17 819.68 705.14 813.71Z" id="avBh65rk2"></path><path d="M721.39 830.97C728.34 837.92 728.34 849.19 721.39 856.13C657.91 919.61 480.05 1097.47 416.57 1160.95C409.62 1167.9 398.36 1167.9 391.41 1160.95C385.44 1154.98 380.12 1149.66 374.15 1143.69C367.2 1136.74 367.2 1125.48 374.15 1118.53C437.63 1055.05 615.49 877.19 678.97 813.71C685.91 806.76 697.18 806.76 704.13 813.71C710.1 819.68 715.42 825 721.39 830.97Z" id="b5BzmXCmDu"></path></defs><g><g><use xlink:href="#d1wttXrHvn" opacity="1" fill="#000000" fill-opacity="1"></use></g><g><use xlink:href="#i1APJ4G2B0" opacity="1" fill="#ffffff" fill-opacity="1"></use><g><use xlink:href="#i1APJ4G2B0" opacity="1" fill-opacity="0" stroke="#000000" stroke-width="1" stroke-opacity="0"></use></g></g><g><use xlink:href="#cpAvTvCJO" opacity="1" fill="#ffffff" fill-opacity="1"></use><g><use xlink:href="#cpAvTvCJO" opacity="1" fill-opacity="0" stroke="#000000" stroke-width="1" stroke-opacity="0"></use></g></g><g><use xlink:href="#c22Bszu2mi" opacity="1" fill="#ffffff" fill-opacity="1"></use><g><use xlink:href="#c22Bszu2mi" opacity="1" fill-opacity="0" stroke="#000000" stroke-width="80" stroke-opacity="1"></use></g></g><g><use xlink:href="#d3JUegODW6" opacity="1" fill="#000000" fill-opacity="1"></use><g><use xlink:href="#d3JUegODW6" opacity="1" fill-opacity="0" stroke="#000000" stroke-width="1" stroke-opacity="0"></use></g></g><g><use xlink:href="#cbqB9o6Aa6" opacity="1" fill="#000000" fill-opacity="1"></use><g><use xlink:href="#cbqB9o6Aa6" opacity="1" fill-opacity="0" stroke="#000000" stroke-width="1" stroke-opacity="0"></use></g></g><g><use xlink:href="#avBh65rk2" opacity="1" fill="#ffffff" fill-opacity="1"></use></g><g><use xlink:href="#b5BzmXCmDu" opacity="1" fill="#ffffff" fill-opacity="1"></use></g></g></svg>