<?xml version="1.0" encoding="UTF-8" standalone="no"?>
<!DOCTYPE svg PUBLIC "-//W3C//DTD SVG 1.1//EN" "http://www.w3.org/Graphics/SVG/1.1/DTD/svg11.dtd">
<svg version="1.1" xmlns="http://www.w3.org/2000/svg" xmlns:xlink="http://www.w3.org/1999/xlink" preserveAspectRatio="xMidYMid meet" viewBox="0 0 640 640" width="640" height="640"><defs><path d="M553.85 115.54C565.43 115.54 574.82 124.93 574.82 136.52C574.82 140.82 574.82 132.74 574.82 137.03C574.82 148.62 565.43 158.01 553.85 158.01C456.11 158.01 183.89 158.01 86.15 158.01C74.57 158.01 65.18 148.62 65.18 137.03C65.18 132.74 65.18 140.82 65.18 136.52C65.18 124.93 74.57 115.54 86.15 115.54C183.89 115.54 456.11 115.54 553.85 115.54Z" id="e2dIpLFp8"></path><path d="M336.36 320.73C342.27 325.69 343.04 334.5 338.08 340.4C334.42 344.77 332.4 347.18 328.73 351.55C323.78 357.45 314.97 358.22 309.06 353.27C259.23 311.45 120.43 194.99 70.6 153.17C64.69 148.22 63.92 139.41 68.88 133.5C72.55 129.14 74.57 126.73 78.23 122.36C83.19 116.45 91.99 115.68 97.9 120.64C147.73 162.45 286.53 278.92 336.36 320.73Z" id="a7Hj0VSVlH"></path><path d="M301.12 322.6C295.26 327.52 294.5 336.26 299.41 342.12C303.09 346.5 305.23 349.05 308.91 353.43C313.82 359.29 322.56 360.06 328.42 355.14C377.86 313.66 515.56 198.11 565 156.63C570.86 151.71 571.62 142.97 566.71 137.11C563.03 132.73 560.89 130.19 557.21 125.8C552.3 119.94 543.56 119.18 537.7 124.09C488.26 165.58 350.56 281.12 301.12 322.6Z" id="c1arhLp9h8"></path><path d="M333.26 313.93C340.72 313.93 346.78 319.98 346.78 327.45C346.78 368 346.78 476.13 346.78 516.69C346.78 524.15 340.72 530.2 333.26 530.2C325.55 530.2 315.96 530.2 308.26 530.2C300.79 530.2 294.74 524.15 294.74 516.69C294.74 476.13 294.74 368 294.74 327.45C294.74 319.98 300.79 313.93 308.26 313.93C315.96 313.93 325.55 313.93 333.26 313.93Z" id="iOP2t8B07"></path></defs><g><g><g><use xlink:href="#e2dIpLFp8" opacity="1" fill="#000000" fill-opacity="1"></use><g><use xlink:href="#e2dIpLFp8" opacity="1" fill-opacity="0" stroke="#000000" stroke-width="1" stroke-opacity="0"></use></g></g><g><use xlink:href="#a7Hj0VSVlH" opacity="1" fill="#000000" fill-opacity="1"></use><g><use xlink:href="#a7Hj0VSVlH" opacity="1" fill-opacity="0" stroke="#000000" stroke-width="1" stroke-opacity="0"></use></g></g><g><use xlink:href="#c1arhLp9h8" opacity="1" fill="#000000" fill-opacity="1"></use><g><use xlink:href="#c1arhLp9h8" opacity="1" fill-opacity="0" stroke="#000000" stroke-width="1" stroke-opacity="0"></use></g></g><g><use xlink:href="#iOP2t8B07" opacity="1" fill="#000000" fill-opacity="1"></use></g></g></g></svg>